<svg width="1920" height="1920" viewBox="0 0 1920 1920" fill="none" xmlns="http://www.w3.org/2000/svg">
<rect width="1920" height="1920" fill="#1E3A8A"/>
<path d="M438.56 807H450.531C451.99 807 453.136 808.24 453.091 809.706C453.091 810.203 453.091 810.721 453.091 811.285V840.853C453.091 848.183 459.02 854.137 466.319 854.137H476.133C477.548 854.137 478.694 855.287 478.694 856.708V927.414C478.694 928.834 477.548 929.985 476.133 929.985H466.319C459.02 929.985 453.091 935.939 453.091 943.269V970.265C453.091 977.595 459.02 983.549 466.319 983.549H476.133C477.548 983.549 478.694 984.7 478.694 986.121V1104.37C478.694 1105.79 477.548 1106.94 476.133 1106.94H438.56C437.145 1106.94 436 1105.79 436 1104.37V809.571C436 808.15 437.145 807 438.56 807ZM474.404 820.284C474.404 812.954 480.311 807 487.632 807H619.036C620.451 807 621.597 808.15 621.597 809.571V845.138C621.597 846.559 620.451 847.709 619.036 847.709H487.632C480.333 847.709 474.404 841.755 474.404 834.425V820.284ZM474.404 949.674C474.404 942.344 480.333 936.39 487.632 936.39H597.297C598.711 936.39 599.857 937.54 599.857 938.961V974.528C599.857 975.949 598.711 977.099 597.297 977.099H487.632C480.333 977.099 474.404 971.145 474.404 963.815V949.674Z" fill="#ECFDF5"/>
<path d="M745.907 887.133C812.474 887.133 856.829 932.127 856.829 999.81C856.829 1067.49 812.452 1112.49 745.907 1112.49C679.363 1112.49 634.985 1067.49 634.985 999.81C634.985 932.127 679.363 887.133 745.907 887.133ZM833.36 1011.38V986.526C833.36 979.197 827.431 973.242 820.132 973.242H815.596C814.495 973.242 813.507 972.521 813.17 971.461C803.783 942.953 779.752 925.699 746.334 925.699C712.916 925.699 687.627 943.381 678.195 971.912C677.836 972.972 676.87 973.693 675.769 973.693H671.66C664.361 973.693 658.431 979.648 658.431 986.978V1011.83C658.431 1019.16 664.361 1025.12 671.66 1025.12H675.769C676.892 1025.12 677.858 1025.84 678.195 1026.92C687.605 1055.88 712.467 1073.97 746.334 1073.97C780.201 1073.97 804.636 1055.88 813.642 1026.54C813.979 1025.45 814.944 1024.71 816.09 1024.71H820.155C827.454 1024.71 833.383 1018.76 833.383 1011.43L833.36 1011.38Z" fill="#ECFDF5"/>
<path d="M894.807 807H930.224C931.639 807 932.784 808.15 932.784 809.571V896.899C932.784 897.508 932.559 898.094 932.178 898.545L909.742 925.248C906.328 929.534 906.328 933.819 910.595 937.247L916.142 941.961C917.849 943.675 919.983 944.103 921.69 944.103C923.823 944.103 926.383 943.246 928.09 940.675L958.566 904.116C958.724 903.913 958.903 903.755 959.128 903.62C974.826 893.042 992.636 887.11 1011.3 887.11C1058.24 887.11 1090.64 925.677 1090.64 982.219V1104.32C1090.64 1105.74 1089.5 1106.89 1088.08 1106.89H1052.67C1051.25 1106.89 1050.11 1105.74 1050.11 1104.32V982.219C1050.11 949.223 1028.77 925.654 998.902 925.654C963.058 925.654 932.762 959.507 932.762 999.788V1104.32C932.762 1105.74 931.616 1106.89 930.201 1106.89H894.784C893.37 1106.89 892.224 1105.74 892.224 1104.32V809.571C892.247 808.15 893.392 807 894.807 807Z" fill="#ECFDF5"/>
<path d="M1292.86 998.525V977.956C1292.86 970.627 1286.93 964.672 1279.63 964.672H1271.86C1270.51 964.672 1269.37 963.612 1269.3 962.259C1268.08 936.571 1253.87 925.677 1221.17 925.677C1192.33 925.677 1178.23 934.451 1175.74 954.726C1175.58 956.012 1174.48 956.959 1173.2 956.959H1137.71C1136.23 956.959 1135.04 955.696 1135.15 954.207C1138.84 911.356 1170.19 887.111 1222 887.111C1277.9 887.111 1309.88 915.821 1309.88 965.507V1104.32C1309.88 1105.74 1308.73 1106.9 1307.32 1106.9H1271.9C1270.49 1106.9 1269.34 1105.74 1269.34 1104.32V1080.21C1269.34 1077.67 1266.09 1076.7 1264.65 1078.79C1250.39 1099.81 1226.15 1112.47 1196.8 1112.47C1154.56 1112.47 1125.97 1086.33 1125.97 1047.76C1125.97 999.766 1169.49 971.055 1241.16 971.055H1262.49C1268.62 971.055 1273.59 976.039 1273.59 982.196V994.195C1273.59 1000.35 1268.62 1005.34 1262.49 1005.34H1240.73C1192.51 1005.34 1166.48 1020.76 1166.48 1046.47C1166.48 1064.04 1178.43 1073.9 1198.91 1073.9C1234.76 1073.9 1269.32 1044.76 1269.32 1014.34C1269.32 1012.91 1270.47 1011.76 1271.88 1011.76H1279.56C1286.86 1011.76 1292.79 1005.81 1292.79 998.48L1292.86 998.525Z" fill="#ECFDF5"/>
<path d="M1484 1070.92V1104.35C1484 1105.77 1482.85 1106.92 1481.44 1106.92H1420.42C1397.8 1106.92 1379.46 1088.51 1379.46 1065.78V933.819C1379.46 932.398 1378.31 931.248 1376.9 931.248H1340.63C1339.21 931.248 1338.06 930.097 1338.06 928.676V895.252C1338.06 893.831 1339.21 892.681 1340.63 892.681H1376.9C1378.31 892.681 1379.46 891.531 1379.46 890.11V830.997C1379.46 829.576 1380.6 828.426 1382.02 828.426H1417.43C1418.85 828.426 1419.99 829.576 1419.99 830.997V883.705C1419.99 885.125 1418.85 886.276 1417.43 886.276H1409.75C1402.45 886.276 1396.52 892.23 1396.52 899.56V924.414C1396.52 931.744 1402.45 937.698 1409.75 937.698H1417.43C1418.85 937.698 1419.99 938.848 1419.99 940.269V1057.23C1419.99 1063.39 1424.96 1068.37 1431.09 1068.37H1481.44C1482.85 1068.37 1484 1069.52 1484 1070.94V1070.92ZM1426.39 931.248C1420.26 931.248 1415.3 926.263 1415.3 920.106V903.822C1415.3 897.665 1420.26 892.681 1426.39 892.681H1470.35C1471.76 892.681 1472.91 893.831 1472.91 895.252V928.676C1472.91 930.097 1471.76 931.248 1470.35 931.248H1426.39Z" fill="#ECFDF5"/>
</svg>
